<svg width="24" height="24" viewBox="0 0 24 24" fill="none" xmlns="http://www.w3.org/2000/svg">
<g clip-path="url(#clip0_3191_9)">
<path fill-rule="evenodd" clip-rule="evenodd" d="M3.52712 23.9952C3.10191 23.997 2.72206 23.7297 2.58019 23.3289C2.43832 22.928 2.56545 22.4813 2.89712 22.2152L4.65712 20.7852C5.31081 20.2555 6.22612 20.1915 6.94712 20.6252C10.8361 22.9046 15.7693 22.3002 18.9931 19.1496C22.217 15.9989 22.9343 11.0808 20.7448 7.14058C18.5553 3.20032 14.0002 1.21203 9.62214 2.28556C5.24411 3.35909 2.12551 7.22902 2.00712 11.7352C1.93774 13.7152 2.47506 15.6691 3.54712 17.3352C3.73825 17.6371 3.75382 18.018 3.58794 18.3345C3.42207 18.651 3.09995 18.8549 2.74294 18.8695C2.38593 18.8841 2.04825 18.7071 1.85712 18.4052C0.56951 16.4026 -0.0759331 14.0546 0.00711702 11.6752C0.15396 6.26915 3.89876 1.62928 9.15199 0.344553C14.4052 -0.940176 19.8687 1.44771 22.494 6.17582C25.1192 10.9039 24.2575 16.8039 20.3896 20.5836C16.5217 24.3633 10.6034 25.0888 5.93712 22.3552L4.15712 23.7652C3.97985 23.9121 3.75733 23.9933 3.52712 23.9952V23.9952ZM12.9871 15.9952V10.9952C12.9871 10.4429 12.5394 9.9952 11.9871 9.9952C11.4348 9.9952 10.9871 10.4429 10.9871 10.9952V15.9952C10.9871 16.5475 11.4348 16.9952 11.9871 16.9952C12.5394 16.9952 12.9871 16.5475 12.9871 15.9952ZM10.9871 7.9952C10.9871 8.54748 11.4348 8.9952 11.9871 8.9952C12.5394 8.9952 12.9871 8.54748 12.9871 7.9952C12.9871 7.44291 12.5394 6.9952 11.9871 6.9952C11.4348 6.9952 10.9871 7.44291 10.9871 7.9952Z" fill="#21CA3D"/>
</g>
<defs>
<clipPath id="clip0_3191_9">
<rect width="24" height="24" fill="white"/>
</clipPath>
</defs>
</svg>
