<svg width="295" height="71" viewBox="0 0 295 71" fill="none" xmlns="http://www.w3.org/2000/svg">
<path d="M35.4825 71C55.079 71 70.965 55.1061 70.965 35.5C70.965 15.8939 55.079 0 35.4825 0C15.8861 0 0 15.8939 0 35.5C0 55.1061 15.8861 71 35.4825 71Z" fill="#21CA3D"/>
<path d="M54.1861 32.1972C54.3237 33.298 54.4612 34.3988 54.4612 35.4996C54.4612 45.6817 45.9344 54.0752 35.4822 54.0752C25.0299 54.0752 16.5031 45.6817 16.5031 35.4996C16.5031 25.3174 25.0299 16.924 35.4822 16.924C40.7083 16.924 45.3843 18.9879 48.8225 22.1527L53.4985 17.4744C48.8225 13.0713 42.6337 10.3193 35.6197 10.3193C21.4542 10.3193 10.0393 21.6023 10.0393 35.362C10.0393 49.1217 21.3167 60.5422 35.4822 60.5422C49.6477 60.5422 61.0626 49.2593 61.0626 35.4996C61.0626 34.3988 60.925 33.298 60.7875 32.1972H54.1861Z" fill="white"/>
<path d="M29.4309 48.9841H36.5824L44.1465 32.1972H37.1325L41.671 22.1527H34.5195L27.0929 38.8019H34.1069L29.4309 48.9841Z" fill="white"/>
<path d="M49.3726 32.1972L46.347 38.8019H58.5871V32.1972H49.3726Z" fill="white"/>
<path d="M122.813 34.1242H108.373V39.4905H116.487V39.9033C115.387 43.068 112.499 44.7192 108.51 44.7192C102.734 44.7192 98.7458 41.0041 98.7458 35.5002C98.7458 30.1339 102.597 26.1436 107.96 26.1436C111.123 26.1436 113.874 27.382 115.387 29.5835L120.75 26.5564C118.137 22.5661 113.324 20.0894 108.098 20.0894C99.4335 20.0894 92.6945 26.8316 92.6945 35.5002C92.6945 44.1688 99.571 50.7735 108.648 50.7735C117.312 50.7735 123.088 44.9944 123.088 36.3258V34.1242H122.813Z" fill="#404367"/>
<path d="M137.116 28.7578C130.652 28.7578 125.976 33.4361 125.976 39.7656C125.976 46.2326 130.79 50.7733 137.529 50.7733C141.38 50.7733 144.405 49.3973 146.468 46.783L141.792 44.1687C140.83 45.1318 139.317 45.6822 137.666 45.6822C134.778 45.6822 132.99 44.5815 132.165 42.5175L132.028 42.1047H147.431C147.569 41.4167 147.569 40.5911 147.569 39.7656C147.706 33.5737 143.168 28.7578 137.116 28.7578ZM132.028 37.8392L132.165 37.4264C132.853 35.0873 134.503 33.8489 137.116 33.8489C139.592 33.8489 141.38 35.2249 141.93 37.4264L142.067 37.8392H132.028Z" fill="#404367"/>
<path d="M154.995 48.8471C156.508 50.2231 159.259 50.7735 163.384 50.3607V45.132C161.459 45.2696 160.221 45.132 159.534 44.444C159.121 44.0312 158.984 43.6184 158.984 42.9305V35.0874H163.384V29.446H158.984V23.5293H154.583L153.207 29.446H149.769V35.0874H153.207V42.9305C153.07 45.82 153.757 47.6087 154.995 48.8471Z" fill="#404367"/>
<path d="M190.065 20.7773H179.063V50.2231H185.389V40.7289H190.203C195.979 40.7289 200.38 36.3258 200.38 30.6843C200.38 25.0428 195.841 20.7773 190.065 20.7773ZM190.065 34.9498H185.252V26.5564H190.065C192.266 26.5564 194.053 28.3452 194.053 30.6843C194.053 33.0235 192.266 34.9498 190.065 34.9498Z" fill="#404367"/>
<path d="M212.758 28.7578C206.569 28.7578 201.755 33.5737 201.755 39.7656C201.755 45.9574 206.569 50.7733 212.758 50.7733C218.946 50.7733 223.76 45.9574 223.76 39.7656C223.76 33.5737 218.946 28.7578 212.758 28.7578ZM212.758 45.1318C209.732 45.1318 207.531 42.9303 207.531 39.7656C207.531 36.6008 209.732 34.3993 212.758 34.3993C215.783 34.3993 217.984 36.6008 217.984 39.7656C217.984 42.9303 215.783 45.1318 212.758 45.1318Z" fill="#404367"/>
<path d="M249.615 29.4458L245.49 39.9032L241.226 29.4458H239.576L235.312 39.9032L231.187 29.4458H225.135L232.974 50.2229H236.688L240.401 40.7288L244.252 50.2229H247.965L255.804 29.4458H249.615Z" fill="#404367"/>
<path d="M268.044 28.7578C261.58 28.7578 256.904 33.4361 256.904 39.7656C256.904 46.2326 261.718 50.7733 268.457 50.7733C272.308 50.7733 275.333 49.3973 277.396 46.783L272.72 44.1687C271.758 45.1318 270.245 45.6822 268.594 45.6822C265.706 45.6822 263.918 44.5815 263.093 42.5175L262.956 42.1047H278.359C278.496 41.4167 278.496 40.5911 278.496 39.7656C278.634 33.5737 274.096 28.7578 268.044 28.7578ZM262.956 37.8392L263.093 37.4264C263.781 35.0873 265.431 33.8489 268.044 33.8489C270.52 33.8489 272.308 35.2249 272.858 37.4264L272.995 37.8392H262.956Z" fill="#404367"/>
<path d="M288.536 34.9497V29.4458H282.76V50.2229H288.536V40.8663V34.9497Z" fill="#404367"/>
<path d="M295 35.6378V28.8955L287.023 31.785V35.5002L295 35.6378Z" fill="#404367"/>
</svg>
